<svg aria-hidden="true" style="position: absolute; width: 0; height: 0; overflow: hidden;" version="1.1" xmlns="http://www.w3.org/2000/svg" xmlns:xlink="http://www.w3.org/1999/xlink">
<defs>
<symbol id="icon-user" viewBox="0 0 32 32">
<path d="M9.667 8c0-3.498 2.836-6.333 6.333-6.333s6.333 2.836 6.333 6.333v0c0 3.498-2.836 6.333-6.333 6.333s-6.333-2.836-6.333-6.333v0zM3 29.333c0-7.18 5.82-13 13-13s13 5.82 13 13c0 0.552-0.448 1-1 1v0h-24c-0.552 0-1-0.448-1-1v0z"></path>
</symbol>
<symbol id="icon-phone" viewBox="0 0 32 32">
<path fill="#1c274c" style="fill: var(--color1, #1c274c)" d="M22.075 17.208l-0.607 0.604c0 0-1.443 1.435-5.383-2.482s-2.497-5.353-2.497-5.353l0.382-0.38c0.942-0.937 1.031-2.441 0.209-3.539l-1.681-2.246c-1.017-1.359-2.983-1.538-4.149-0.379l-2.093 2.081c-0.578 0.575-0.966 1.32-0.919 2.147 0.12 2.115 1.077 6.665 6.417 11.975 5.662 5.63 10.975 5.854 13.148 5.651 0.687-0.064 1.285-0.414 1.766-0.893l1.894-1.883c1.279-1.271 0.918-3.451-0.718-4.34l-2.547-1.385c-1.074-0.584-2.383-0.412-3.222 0.422z"></path>
</symbol>
</defs>
</svg>
